<svg width="16" height="16" viewBox="0 0 12 13" fill="none" xmlns="http://www.w3.org/2000/svg">
<path fill-rule="evenodd" clip-rule="evenodd" d="M5 1.54834H10C10.5761 1.54834 11 1.9722 11 2.54834V7.54834C11 8.12448 10.5761 8.54834 10 8.54834H8V10.5483C8 11.1245 7.57614 11.5483 7 11.5483H2C1.42386 11.5483 1 11.1245 1 10.5483V5.54834C1 4.9722 1.42386 4.54834 2 4.54834H4V2.54834C4 1.9722 4.42386 1.54834 5 1.54834ZM4 5.54834H2V10.5483H7V8.54834H5C4.42386 8.54834 4 8.12448 4 7.54834V5.54834ZM5 2.54834V7.54834H10V2.54834H5Z" fill="white"/>
</svg>
