<svg width="16" height="16" viewBox="0 0 12 12" fill="currentColor" xmlns="http://www.w3.org/2000/svg">
<path fill-rule="evenodd" clip-rule="evenodd" d="M6 0.774414C9.03757 0.774414 11.5 3.23685 11.5 6.27441C11.5 9.31198 9.03757 11.7744 6 11.7744C2.96243 11.7744 0.5 9.31198 0.5 6.27441C0.5 3.23685 2.96243 0.774414 6 0.774414ZM1.53282 5.72812C1.67859 5.91468 2.08391 6.1534 2.70413 6.34817C2.94834 6.42486 3.2158 6.49227 3.50278 6.54952C3.50093 6.45835 3.5 6.36663 3.5 6.27441C3.5 4.61059 3.80278 3.10807 4.32727 2.09557C2.83206 2.69462 1.73314 4.07291 1.53282 5.72812ZM3.56457 7.57983C2.76167 7.44027 2.07322 7.22905 1.55148 6.95731C1.79418 8.55151 2.87338 9.87076 4.32728 10.4533C3.94433 9.71402 3.67958 8.71356 3.56457 7.57983ZM4.58945 7.71308C5.038 7.75349 5.51044 7.77441 6 7.77441C6.48166 7.77441 6.95622 7.74711 7.41264 7.69648C7.18711 9.49527 6.5635 10.7744 6 10.7744C5.43824 10.7744 4.81673 9.50313 4.58945 7.71308ZM7.49315 6.67667C7.01837 6.73816 6.51402 6.77441 6 6.77441C5.47789 6.77441 4.9767 6.74856 4.50766 6.69952C4.50261 6.55969 4.5 6.4179 4.5 6.27441C4.5 3.76641 5.2968 1.77441 6 1.77441C6.7032 1.77441 7.5 3.76641 7.5 6.27441C7.5 6.41009 7.49767 6.54425 7.49315 6.67667ZM8.43962 7.53786C8.32693 8.68887 8.06038 9.70491 7.67272 10.4533C9.15228 9.86048 10.2438 8.5047 10.4606 6.87262C9.93051 7.14834 9.23235 7.3789 8.43962 7.53786ZM10.4643 5.70448C10.229 5.96857 9.48684 6.28228 8.49811 6.50148C8.49937 6.42615 8.5 6.35045 8.5 6.27441C8.5 4.61059 8.19722 3.10807 7.67273 2.09557C9.16082 2.69177 10.2564 4.0598 10.4643 5.70448Z" fill="currentColor"/>
</svg>
