<svg width="26" height="26" viewBox="0 0 26 26" fill="contentColor" xmlns="http://www.w3.org/2000/svg">
<path d="M13 1.807C6.82825 1.807 1.807 6.82825 1.807 13C1.807 19.1717 6.82825 24.193 13 24.193C19.1724 24.193 24.193 19.1717 24.193 13C24.193 6.82825 19.1724 1.807 13 1.807ZM13 26C5.8318 26 0 20.1682 0 13C0 5.8318 5.8318 0 13 0C20.1682 0 26 5.8318 26 13C26 20.1682 20.1682 26 13 26Z" fill="contentColor"/>
<path d="M12.699 17.1895H7.90332V18.689H12.699V17.1895Z" fill="contentColor"/>
<path d="M12.699 17.1895H7.90332V18.689H12.699V17.1895Z" fill="contentColor"/>
<path d="M15.8327 10.0233C15.3016 9.73075 14.6945 9.5845 14.012 9.5845C13.4374 9.5845 12.9064 9.6872 12.4189 9.89325C11.9418 10.0993 11.5466 10.3918 11.232 10.7714V6.6582H9.37882V14.2405H7.90332V15.74H12.699V14.2405H11.2326V13.6815C11.2326 12.8794 11.4335 12.2671 11.8339 11.8446C12.246 11.411 12.7985 11.1946 13.492 11.1946C14.1856 11.1946 14.7329 11.411 15.1339 11.8446C15.535 12.2671 15.7358 12.8794 15.7358 13.6815V18.6884H17.5727V13.4052C17.5727 12.5921 17.4154 11.8985 17.1015 11.3246C16.7973 10.7493 16.3748 10.3164 15.8327 10.0233Z" fill="contentColor"/>
<path d="M15.8327 10.0233C15.3016 9.73075 14.6945 9.5845 14.012 9.5845C13.4374 9.5845 12.9064 9.6872 12.4189 9.89325C11.9418 10.0993 11.5466 10.3918 11.232 10.7714V6.6582H9.37882V14.2405H7.90332V15.74H12.699V14.2405H11.2326V13.6815C11.2326 12.8794 11.4335 12.2671 11.8339 11.8446C12.246 11.411 12.7985 11.1946 13.492 11.1946C14.1856 11.1946 14.7329 11.411 15.1339 11.8446C15.535 12.2671 15.7358 12.8794 15.7358 13.6815V18.6884H17.5727V13.4052C17.5727 12.5921 17.4154 11.8985 17.1015 11.3246C16.7973 10.7493 16.3748 10.3164 15.8327 10.0233Z" fill="contentColor"/>
</svg>
