<svg xmlns="http://www.w3.org/2000/svg" width="126" height="28" viewBox="0 0 126 28" fill="currentColor">
<path d="M11.0286 24.2168H0V27.6654H11.0286V24.2168Z" fill="currentColor"/>
<path d="M18.2357 7.73908C17.0139 7.06582 15.6194 6.72987 14.048 6.72987C12.7275 6.72987 11.5058 6.96709 10.3841 7.44016C9.28717 7.91322 8.37806 8.58648 7.65544 9.45857V0H3.39373V17.4349H0V20.8834H11.0286V17.4349H7.65544V16.15C7.65544 14.3058 8.11616 12.8976 9.03898 11.9254C9.98648 10.9285 11.2576 10.4294 12.8523 10.4294C14.447 10.4294 15.7058 10.9285 16.6286 11.9254C17.5514 12.8976 18.0121 14.3058 18.0121 16.15V27.6641H22.2368V15.5138C22.2368 13.6449 21.8748 12.0501 21.1522 10.7283C20.4529 9.40783 19.4807 8.41097 18.2357 7.73908Z" fill="currentColor"/>
<path d="M43.1107 10.0564C42.3881 9.10893 41.4159 8.3246 40.1942 7.7007C38.9985 7.05212 37.5903 6.72852 35.9695 6.72852C34.1746 6.72852 32.5305 7.1769 31.0345 8.07367C29.5646 8.94575 28.3922 10.1798 27.5201 11.7745C26.6727 13.3693 26.249 15.2012 26.249 17.2703C26.249 19.3395 26.6727 21.1961 27.5201 22.8402C28.3922 24.4596 29.5632 25.7307 31.0345 26.6535C32.5045 27.5503 34.1252 28 35.8941 28C37.4888 28 38.9094 27.6764 40.1558 27.0278C41.4022 26.3792 42.3867 25.5702 43.1094 24.5981V27.6641H47.4081V7.06583H43.1107V10.0564ZM42.214 21.085C41.6408 22.1313 40.8812 22.9293 39.9336 23.4778C38.9861 24.0263 37.9646 24.3005 36.8676 24.3005C35.7954 24.3005 34.7738 24.0263 33.8016 23.4778C32.8541 22.9046 32.0821 22.0819 31.4843 21.011C30.9111 19.9387 30.6245 18.6936 30.6245 17.2731C30.6245 15.8525 30.9111 14.6308 31.4843 13.6092C32.0821 12.563 32.8555 11.7773 33.8016 11.2535C34.7491 10.705 35.7707 10.4308 36.8676 10.4308C37.9646 10.4308 38.9861 10.705 39.9336 11.2535C40.8812 11.802 41.6408 12.5986 42.214 13.6462C42.8118 14.6925 43.1107 15.9266 43.1107 17.3471C43.1107 18.7663 42.8118 20.0127 42.214 21.085Z" fill="currentColor"/>
<path d="M57.98 1.94434H53.6812V7.06578H51.2515V10.5432H53.6812V21.9447C53.6812 23.9631 54.1927 25.4221 55.2142 26.3189C56.2358 27.2156 57.7071 27.6654 59.6254 27.6654H62.989V24.114H60.3727C59.5006 24.114 58.8767 23.9522 58.5038 23.6286C58.1541 23.2803 57.98 22.7195 57.98 21.9461V10.5418H62.989V7.06578H57.98V1.94434Z" fill="currentColor"/>
<path d="M81.7594 7.73908C80.5377 7.06582 79.1431 6.72987 77.5731 6.72987C76.2526 6.72987 75.0309 6.96709 73.9093 7.44016C72.8123 7.91322 71.9032 8.58648 71.1792 9.45857V0H66.9175V27.6641H71.1792V16.15C71.1792 14.3058 71.6413 12.8976 72.5627 11.9254C73.5102 10.9285 74.78 10.4294 76.3761 10.4294C77.9721 10.4294 79.2295 10.9285 80.1523 11.9254C81.0738 12.8976 81.5359 14.3058 81.5359 16.15V27.6641H85.7606V15.5138C85.7606 13.6449 85.3986 12.0501 84.676 10.7283C83.978 9.40783 83.0058 8.41097 81.7594 7.73908Z" fill="currentColor"/>
<path d="M105.664 8.03762C104.069 7.16553 102.286 6.72949 100.317 6.72949C98.3482 6.72949 96.5657 7.16553 94.971 8.03762C93.3763 8.90971 92.1175 10.1561 91.196 11.7755C90.2746 13.3949 89.8125 15.2529 89.8125 17.3454C89.8125 19.4639 90.2609 21.3328 91.159 22.9536C92.0558 24.5483 93.2899 25.7947 94.8599 26.6915C96.4299 27.5636 98.1864 27.9996 100.131 27.9996C102.1 27.9996 103.895 27.5636 105.514 26.6915C107.16 25.7947 108.455 24.536 109.402 22.9152C110.349 21.2958 110.822 19.4378 110.822 17.3454C110.822 15.2515 110.361 13.3949 109.439 11.7755C108.517 10.1561 107.258 8.90971 105.664 8.03762ZM105.551 21.1587C104.953 22.2049 104.168 22.9906 103.197 23.5144C102.249 24.0382 101.228 24.3001 100.131 24.3001C98.4113 24.3001 96.9784 23.7023 95.8321 22.5052C94.7104 21.2835 94.1496 19.564 94.1496 17.3467C94.1496 15.8507 94.4239 14.5934 94.9723 13.5704C95.5208 12.5242 96.2558 11.7385 97.1786 11.2147C98.1261 10.6909 99.1477 10.429 100.245 10.429C101.34 10.429 102.363 10.6909 103.309 11.2147C104.257 11.7385 105.016 12.5228 105.59 13.5704C106.163 14.592 106.449 15.8507 106.449 17.3467C106.449 18.8427 106.149 20.1124 105.551 21.1587Z" fill="currentColor"/>
<path d="M121.764 7.62626C120.743 8.19942 119.92 9.0098 119.298 10.056V7.06544H115.036V27.6637H119.298V16.8216C119.298 14.7277 119.721 13.2578 120.569 12.4104C121.441 11.563 122.712 11.1393 124.382 11.1393H125.465V6.72949C124.045 6.72949 122.812 7.02841 121.764 7.62626Z" fill="currentColor"/>
</svg>