<svg width="14" height="14" viewBox="0 0 14 14" fill="currentColor" xmlns="http://www.w3.org/2000/svg">
<path fill-rule="evenodd" clip-rule="evenodd" d="M5.66634 10.9997C2.72082 10.9997 0.333008 8.61186 0.333008 5.66634C0.333008 2.72082 2.72082 0.333008 5.66634 0.333008C8.61186 0.333008 10.9997 2.72082 10.9997 5.66634C10.9997 6.89882 10.5816 8.03365 9.87958 8.93677L13.4711 12.5283L12.5283 13.4711L8.93677 9.87958C8.03365 10.5816 6.89882 10.9997 5.66634 10.9997ZM9.66634 5.66634C9.66634 7.87548 7.87548 9.66634 5.66634 9.66634C3.4572 9.66634 1.66634 7.87548 1.66634 5.66634C1.66634 3.4572 3.4572 1.66634 5.66634 1.66634C7.87548 1.66634 9.66634 3.4572 9.66634 5.66634Z" fill="currentColor"/>
</svg>
