<svg width="16" height="16" viewBox="0 0 16 16" fill="currentColor" xmlns="http://www.w3.org/2000/svg">
<path fill-rule="evenodd" clip-rule="evenodd" d="M11.9997 2.66634C11.9997 3.40272 12.5966 3.99967 13.333 3.99967C14.0694 3.99967 14.6663 3.40272 14.6663 2.66634C14.6663 1.92996 14.0694 1.33301 13.333 1.33301C12.5966 1.33301 11.9997 1.92996 11.9997 2.66634ZM13.333 9.33301C12.5966 9.33301 11.9997 8.73605 11.9997 7.99967C11.9997 7.26329 12.5966 6.66634 13.333 6.66634C14.0694 6.66634 14.6663 7.26329 14.6663 7.99967C14.6663 8.73605 14.0694 9.33301 13.333 9.33301ZM13.333 14.6663C12.5966 14.6663 11.9997 14.0694 11.9997 13.333C11.9997 12.5966 12.5966 11.9997 13.333 11.9997C14.0694 11.9997 14.6663 12.5966 14.6663 13.333C14.6663 14.0694 14.0694 14.6663 13.333 14.6663ZM7.99967 14.6663C7.26329 14.6663 6.66634 14.0694 6.66634 13.333C6.66634 12.5966 7.26329 11.9997 7.99967 11.9997C8.73605 11.9997 9.33301 12.5966 9.33301 13.333C9.33301 14.0694 8.73605 14.6663 7.99967 14.6663ZM6.66634 7.99967C6.66634 8.73605 7.26329 9.33301 7.99967 9.33301C8.73605 9.33301 9.33301 8.73605 9.33301 7.99967C9.33301 7.26329 8.73605 6.66634 7.99967 6.66634C7.26329 6.66634 6.66634 7.26329 6.66634 7.99967ZM7.99967 3.99967C7.26329 3.99967 6.66634 3.40272 6.66634 2.66634C6.66634 1.92996 7.26329 1.33301 7.99967 1.33301C8.73605 1.33301 9.33301 1.92996 9.33301 2.66634C9.33301 3.40272 8.73605 3.99967 7.99967 3.99967ZM1.33301 13.333C1.33301 14.0694 1.92996 14.6663 2.66634 14.6663C3.40272 14.6663 3.99967 14.0694 3.99967 13.333C3.99967 12.5966 3.40272 11.9997 2.66634 11.9997C1.92996 11.9997 1.33301 12.5966 1.33301 13.333ZM2.66634 9.33301C1.92996 9.33301 1.33301 8.73605 1.33301 7.99967C1.33301 7.26329 1.92996 6.66634 2.66634 6.66634C3.40272 6.66634 3.99967 7.26329 3.99967 7.99967C3.99967 8.73605 3.40272 9.33301 2.66634 9.33301ZM1.33301 2.66634C1.33301 3.40272 1.92996 3.99967 2.66634 3.99967C3.40272 3.99967 3.99967 3.40272 3.99967 2.66634C3.99967 1.92996 3.40272 1.33301 2.66634 1.33301C1.92996 1.33301 1.33301 1.92996 1.33301 2.66634Z" fill="currentColor"/>
</svg>
