<?xml version="1.0" standalone="no"?>
<!DOCTYPE svg PUBLIC "-//W3C//DTD SVG 20010904//EN"
 "http://www.w3.org/TR/2001/REC-SVG-20010904/DTD/svg10.dtd">
<svg version="1.0" xmlns="http://www.w3.org/2000/svg"
 width="1024.000000pt" height="1024.000000pt" viewBox="0 0 1024.000000 1024.000000"
 preserveAspectRatio="xMidYMid meet">
<metadata>
Created by potrace 1.11, written by Peter Selinger 2001-2013
</metadata>
<g transform="translate(0.000000,1024.000000) scale(0.100000,-0.100000)"
fill="#000000" stroke="none">
<path d="M4775 10229 c-473 -31 -982 -140 -1427 -305 -889 -330 -1677 -905
-2260 -1651 -1164 -1487 -1414 -3488 -653 -5218 334 -761 872 -1451 1532
-1967 1487 -1164 3488 -1414 5218 -653 759 333 1445 867 1962 1525 1167 1487
1420 3492 658 5225 -334 761 -872 1451 -1532 1967 -994 778 -2234 1160 -3498
1077z m-495 -2903 l5 -1518 50 78 c238 376 596 637 1020 744 169 43 301 60
505 67 623 19 1114 -164 1519 -568 314 -314 494 -711 568 -1253 15 -108 17
-307 20 -1798 l4 -1678 -536 0 -535 0 0 1503 c0 953 -4 1546 -11 1622 -26 307
-118 578 -259 766 -63 85 -198 213 -280 267 -143 94 -292 150 -485 184 -104
17 -147 20 -320 15 -149 -4 -223 -10 -290 -26 -256 -57 -444 -160 -612 -334
-136 -141 -216 -276 -277 -467 -64 -198 -86 -356 -86 -622 l0 -178 410 0 410
0 0 -455 0 -455 -1400 0 -1400 0 0 455 0 455 450 0 450 0 0 2360 0 2360 538
-2 537 -3 5 -1519z m820 -5471 l0 -455 -1400 0 -1400 0 0 455 0 455 1400 0
1400 0 0 -455z"/>
</g>
</svg>
