<svg width="16" height="17" viewBox="0 0 16 17" fill="white" xmlns="http://www.w3.org/2000/svg">
<path fill-rule="evenodd" clip-rule="evenodd" d="M6.66732 12.2741C3.7218 12.2741 1.33398 9.88627 1.33398 6.94076C1.33398 3.99524 3.7218 1.60742 6.66732 1.60742C9.61284 1.60742 12.0007 3.99524 12.0007 6.94076C12.0007 8.17323 11.5826 9.30806 10.8806 10.2112L14.4721 13.8027L13.5292 14.7455L9.93775 11.154C9.03462 11.856 7.89979 12.2741 6.66732 12.2741ZM10.6673 6.94076C10.6673 9.14989 8.87646 10.9408 6.66732 10.9408C4.45818 10.9408 2.66732 9.14989 2.66732 6.94076C2.66732 4.73162 4.45818 2.94076 6.66732 2.94076C8.87646 2.94076 10.6673 4.73162 10.6673 6.94076Z" fill="white"/>
</svg>
