<svg width="16" height="16" viewBox="0 0 16 16" fill="none" xmlns="http://www.w3.org/2000/svg">
<path fill-rule="evenodd" clip-rule="evenodd" d="M0.666748 7.99984C0.666748 12.0499 3.94999 15.3332 8.00008 15.3332C12.0502 15.3332 15.3334 12.0499 15.3334 7.99984C15.3334 3.94975 12.0502 0.666504 8.00008 0.666504C3.94999 0.666504 0.666748 3.94975 0.666748 7.99984ZM14.0001 7.99984C14.0001 11.3135 11.3138 13.9998 8.00008 13.9998C4.68637 13.9998 2.00008 11.3135 2.00008 7.99984C2.00008 4.68613 4.68637 1.99984 8.00008 1.99984C11.3138 1.99984 14.0001 4.68613 14.0001 7.99984ZM8.66916 9.33207H9.33538V10.6654H6.66872V9.33207H7.33538V7.99873H6.66872V6.6654H8.66916V9.33207ZM8.66719 5.33207C8.66719 5.70026 8.36861 5.99873 8.0003 5.99873C7.63199 5.99873 7.33342 5.70026 7.33342 5.33207C7.33342 4.96388 7.63199 4.6654 8.0003 4.6654C8.36861 4.6654 8.66719 4.96388 8.66719 5.33207Z" fill="currentColor"/>
</svg>
